# xmcd CD database file
#
# Track frame offsets:
#	150
#	16106
#	34235
#	50961
#	72123
#	89536
#	102947
#	117965
#	129421
#	146663
#	156241
#	177643
#
# Disc length: 2578 seconds
#
# Revision: 0
# Processed by: cddbd v1.5.2PL0 Copyright (c) Steve Scherf et al.
# Submitted via: CDex 1.51
#
DISCID=ab0a100c
DTITLE=Roos Jonker - Roos
DYEAR=2010
DGENRE=Jazz
TTITLE0=Hangover
TTITLE1=Still There
TTITLE2=Man in the Middle
TTITLE3=Mmmmm
TTITLE4=Play The Guitar
TTITLE5=New Dress
TTITLE6=Roses All The Way
TTITLE7=Me and You
TTITLE8=Shoes and Booze
TTITLE9=Soon
TTITLE10=Instrumental 
TTITLE11=Mine (bonus track)
EXTD=YEAR: 2010
EXTT0=
EXTT1=
EXTT2=
EXTT3=
EXTT4=
EXTT5=
EXTT6=
EXTT7=
EXTT8=
EXTT9=
EXTT10=
EXTT11=
PLAYORDER=
